<?xml version="1.0" encoding="UTF-8"?>
<svg width="610px" height="95px" viewBox="0 0 610 95" version="1.1" xmlns="http://www.w3.org/2000/svg" xmlns:xlink="http://www.w3.org/1999/xlink">
    <!-- Generator: Sketch 47.1 (45422) - http://www.bohemiancoding.com/sketch -->
    <title>oneteam</title>
    <desc>Created with Sketch.</desc>
    <defs></defs>
    <g id="Page-1" stroke="none" stroke-width="1" fill="none" fill-rule="evenodd">
        <path d="M8.302,56.568 C8.302,76.584 22.846,88.248 36.958,88.248 C51.214,88.248 65.758,76.584 65.758,56.568 C65.758,36.552 51.214,25.32 36.958,25.32 C22.846,25.32 8.302,36.552 8.302,56.568 Z M73.246,56.568 C73.246,77.016 57.838,94.728 36.958,94.728 C16.222,94.728 0.814,77.016 0.814,56.568 C0.814,36.12 16.222,18.408 36.958,18.408 C57.838,18.408 73.246,36.12 73.246,56.568 Z M105.622,33.816 C110.374,28.056 117.43,25.32 125.638,25.464 C140.182,26.04 152.998,35.832 153.142,51.096 L153.142,93 L160.63,93 L160.63,51.096 C160.63,30.504 144.79,18.84 125.926,18.552 C118.726,18.552 110.806,21.144 105.622,26.184 L104.614,19.992 L98.134,19.992 L98.134,93 L105.622,93 L105.622,33.816 Z M220.654,86.952 C228.862,86.952 237.502,83.928 242.686,77.448 L248.302,81.336 C241.39,89.832 231.598,94.008 220.654,94.008 C197.182,94.008 185.23,73.992 185.374,55.848 C185.374,37.56 197.614,19.128 220.51,18.984 C240.382,18.84 254.35,34.392 254.35,53.976 C254.35,55.704 254.206,56.856 254.062,58.728 L192.286,58.728 C193.294,73.128 203.374,86.952 220.654,86.952 Z M192.286,52.392 L247.726,52.392 C246.862,36.696 235.63,26.184 220.51,25.896 C203.518,26.04 194.302,37.704 192.286,52.392 Z M303.574,86.808 C294.214,86.952 288.598,81.768 288.598,73.128 L288.598,26.184 L303.43,26.184 L303.43,19.992 L288.598,19.992 L288.598,0.552 L281.254,2.136 L281.254,19.992 L270.454,19.992 L270.454,26.184 L281.254,26.184 L281.254,73.128 C281.254,87.384 290.758,94.152 303.574,93.576 L303.574,86.808 Z M359.134,86.952 C367.342,86.952 375.982,83.928 381.166,77.448 L386.782,81.336 C379.87,89.832 370.078,94.008 359.134,94.008 C335.662,94.008 323.71,73.992 323.854,55.848 C323.854,37.56 336.094,19.128 358.99,18.984 C378.862,18.84 392.83,34.392 392.83,53.976 C392.83,55.704 392.686,56.856 392.542,58.728 L330.766,58.728 C331.774,73.128 341.854,86.952 359.134,86.952 Z M330.766,52.392 L386.206,52.392 C385.342,36.696 374.11,26.184 358.99,25.896 C341.998,26.04 332.782,37.704 330.766,52.392 Z M466.678,77.88 L466.678,57.864 C460.342,53.832 452.278,52.104 445.798,52.104 C429.094,52.104 420.598,59.88 420.598,69.816 C420.598,80.184 428.374,87.816 444.358,87.816 C451.846,87.816 461.35,84.216 466.678,77.88 Z M473.734,93 L467.974,93 L466.534,85.224 C459.766,91.704 451.27,94.44 444.358,94.584 C423.19,94.728 413.254,83.496 413.254,69.384 C413.254,56.568 424.486,45.192 445.654,45.048 C451.702,45.048 459.622,46.92 466.678,51.096 L466.678,45.048 C466.678,29.352 455.446,25.608 443.494,25.608 C435.142,25.608 429.526,27.624 422.47,32.088 L419.158,26.76 C426.358,21.288 435.286,18.696 443.926,18.696 C459.046,18.696 473.734,25.464 473.734,45.048 L473.734,93 Z M530.446,25.464 C544.414,25.464 552.046,32.952 552.622,48.072 L552.91,93 L559.966,93 L559.966,48.072 C560.11,30.792 569.902,25.608 581.278,25.608 C592.366,25.608 602.302,32.52 602.302,49.512 L602.302,93 L609.79,93 L609.79,49.512 C609.79,27.336 596.974,18.84 581.278,18.84 C571.63,18.84 562.414,20.424 556.078,33.24 C551.614,22.44 543.262,19.272 530.734,18.696 C523.534,18.696 515.614,21.144 510.43,26.184 L509.422,19.992 L502.942,19.992 L502.942,93 L510.43,93 L510.43,33.816 C515.182,28.056 522.238,25.32 530.446,25.464 Z" id="oneteam" fill="#FFFFFF"></path>
    </g>
</svg>