<?xml version="1.0" encoding="UTF-8"?>
<svg width="610px" height="97px" viewBox="0 0 610 97" version="1.1" xmlns="http://www.w3.org/2000/svg" xmlns:xlink="http://www.w3.org/1999/xlink">
    <!-- Generator: Sketch 47.1 (45422) - http://www.bohemiancoding.com/sketch -->
    <title>oneteam</title>
    <desc>Created with Sketch.</desc>
    <defs></defs>
    <g id="Page-1" stroke="none" stroke-width="1" fill="none" fill-rule="evenodd">
        <path d="M11.906,58.568 C11.906,77.576 24.578,86.792 37.682,86.792 C50.93,86.792 63.602,77.576 63.602,58.568 C63.602,39.56 50.93,30.632 37.682,30.632 C24.578,30.632 11.906,39.56 11.906,58.568 Z M74.834,58.568 C74.834,79.88 59.714,96.728 37.682,96.728 C15.794,96.728 0.674,79.88 0.674,58.568 C0.674,37.256 15.794,20.552 37.682,20.552 C59.714,20.552 74.834,37.256 74.834,58.568 Z M95.978,21.992 L95.978,95 L107.066,95 L107.066,38.408 C112.826,32.792 122.186,30.92 128.378,31.208 C141.338,32.072 150.842,39.272 150.986,53.24 L150.986,95 L162.218,95 L162.218,53.24 C162.218,31.928 147.674,21.416 127.946,20.984 C119.306,21.128 111.098,24.152 106.922,28.76 L105.482,21.992 L95.978,21.992 Z M219.794,86.36 C227.858,86.36 236.21,82.904 241.106,76.28 L249.746,81.752 C242.402,91.688 231.89,96.584 219.794,96.584 C195.026,96.584 182.498,77.144 182.642,58.28 C182.642,39.416 195.458,20.264 219.65,20.12 C242.834,19.976 258.242,38.984 254.786,62.312 L193.586,62.312 C194.45,74.696 203.666,86.36 219.794,86.36 Z M193.73,52.808 L244.706,52.808 C243.554,39.416 233.762,30.344 219.794,30.056 C203.954,30.2 195.602,40.856 193.73,52.808 Z M304.01,85.784 C294.65,86.504 289.178,82.76 289.178,73.688 L289.178,30.92 L304.01,30.92 L304.01,21.992 L289.178,21.992 L289.178,0.536 L277.946,1.544 L277.946,21.992 L265.994,21.992 L265.994,30.92 L277.946,30.92 L277.946,73.688 C277.946,89.672 289.034,97.016 304.01,95.432 L304.01,85.784 Z M357.122,86.36 C365.186,86.36 373.538,82.904 378.434,76.28 L387.074,81.752 C379.73,91.688 369.218,96.584 357.122,96.584 C332.354,96.584 319.826,77.144 319.97,58.28 C319.97,39.416 332.786,20.264 356.978,20.12 C380.162,19.976 395.57,38.984 392.114,62.312 L330.914,62.312 C331.778,74.696 340.994,86.36 357.122,86.36 Z M331.058,52.808 L382.034,52.808 C380.882,39.416 371.09,30.344 357.122,30.056 C341.282,30.2 332.93,40.856 331.058,52.808 Z M462.794,60.584 C457.466,57.128 450.554,55.4 444.362,55.4 C428.666,55.544 420.602,62.168 420.602,71.816 C420.602,80.456 427.946,87.368 442.922,87.368 C449.978,87.368 458.186,83.624 462.794,78.152 L462.794,60.584 Z M473.594,95 L464.81,95 L463.226,88.52 C458.042,93.56 450.266,96.584 442.922,96.728 C421.034,96.872 410.234,85.928 410.234,71.816 C410.234,57.56 421.61,45.752 444.218,46.04 C450.698,46.04 457.322,48.488 463.082,51.512 L463.082,48.344 C463.082,33.944 453.002,30.056 442.058,30.056 C434.138,30.056 425.786,32.792 419.738,37.112 L414.986,29.192 C424.49,22.28 433.706,20.12 442.346,20.12 C458.618,19.976 473.594,27.608 473.594,48.344 L473.594,95 Z M549.17,51.368 L549.17,95 L559.826,95 L559.97,51.368 C560.114,36.968 568.754,30.488 578.69,30.488 C589.346,30.488 598.562,36.104 598.562,52.808 L598.562,95 L609.65,95 L609.65,52.808 C609.65,29.624 594.386,20.696 579.41,20.696 C569.042,20.696 559.25,24.44 554.354,33.512 C549.89,25.448 540.386,20.984 529.442,20.984 C520.226,20.984 514.322,24.008 510.002,28.76 L508.562,21.992 L499.058,21.992 L499.058,95 L510.146,95 L510.146,37.976 C523.394,25.016 549.17,29.192 549.17,51.368 Z" id="oneteam" fill="#FFFFFF"></path>
    </g>
</svg>