<?xml version="1.0" encoding="UTF-8"?>
<svg width="320px" height="58px" viewBox="0 0 320 58" version="1.1" xmlns="http://www.w3.org/2000/svg" xmlns:xlink="http://www.w3.org/1999/xlink">
    <!-- Generator: Sketch 47.1 (45422) - http://www.bohemiancoding.com/sketch -->
    <title>Rectangle</title>
    <desc>Created with Sketch.</desc>
    <defs></defs>
    <g id="Page-1" stroke="none" stroke-width="1" fill="none" fill-rule="evenodd">
        <g id="highlight-green" fill-rule="nonzero" fill="#32E875">
            <path d="M17.1725068,2.2089344 C39.2817149,2.2089344 61.4159456,5.7242908 83.5251536,5.7242908 C105.831383,5.7242908 135.154426,2.710195 171.33016,2.2089344 C192.95847,1.9092467 237.478267,-2.60779326 300.044317,2.2089344 C300.044317,2.2089344 300.044317,2.2089344 300.044317,2.2089344 L300.044317,2.2089344 C311.30499,3.0758517 319.99998,12.4659664 319.99998,23.7599603 L320,32.8427551 L320,32.8427551 C320,45.1555207 310.211523,55.2375457 297.90413,55.6012603 C251.070436,56.9853257 220.021036,57.7690499 204.755929,57.9524441 C162.293043,58.4625911 134.425251,54.6947375 120.94206,54.9392815 C107.308743,55.1865482 101.338259,57.9524441 94.5007794,57.9524441 C69.6360198,57.9524441 45.3142082,56.3174652 21.5353445,53.0475073 L21.5353443,53.0475091 C17.9927883,52.5603535 14.5888038,51.3476806 11.5361748,49.485295 C1.93868596,43.6299407 -1.67034958,36.1155018 0.70906817,26.9419781 C3.80656438,15 2.13941248,9.5362877 4.30608007,5.7242908 C6.30414286,2.2089344 12.9467356,2.2089344 17.1725068,2.2089344 Z" id="Rectangle" transform="translate(160.000000, 29.000000) scale(-1, 1) rotate(-180.000000) translate(-160.000000, -29.000000) "></path>
        </g>
    </g>
</svg>