<?xml version="1.0" encoding="UTF-8"?>
<svg preserveAspectRatio="none" width="321px" height="68px" viewBox="0 0 321 68" version="1.1" xmlns="http://www.w3.org/2000/svg" xmlns:xlink="http://www.w3.org/1999/xlink">
    <g id="Page-1" stroke="none" stroke-width="1" fill="none" fill-rule="evenodd">
        <g id="Artboard" fill="#ccf9dc">
            <path d="M18.1725068,12.2089344 C40.2817149,12.2089344 62.4159456,15.7242908 84.5251536,15.7242908 C106.831383,15.7242908 136.154426,12.710195 172.33016,12.2089344 C193.95847,11.9092467 238.478267,7.39220674 301.044317,12.2089344 C301.044317,12.2089344 301.044317,12.2089344 301.044317,12.2089344 L301.044317,12.2089344 C312.30499,13.0758517 320.99998,22.4659664 320.99998,33.7599603 L321,42.8427551 L321,42.8427551 C321,55.1555207 311.211523,65.2375457 298.90413,65.6012603 C252.070436,66.9853257 221.021036,67.7690499 205.755929,67.9524441 C163.293043,68.4625911 135.425251,64.6947375 121.94206,64.9392815 C108.308743,65.1865482 102.338259,67.9524441 95.5007794,67.9524441 C70.6360198,67.9524441 46.3142082,66.3174652 22.5353445,63.0475073 L22.5353443,63.0475091 C18.9927883,62.5603535 15.5888038,61.3476806 12.5361748,59.485295 C2.93868596,53.6299407 -0.670349578,46.1155018 1.70906817,36.9419781 C4.80656438,25 3.13941248,19.5362877 5.30608007,15.7242908 C7.30414286,12.2089344 13.9467356,12.2089344 18.1725068,12.2089344 Z" id="Rectangle" transform="translate(161.000000, 39.000000) scale(1, -1) translate(-161.000000, -39.000000) "></path>
        </g>
    </g>
</svg>
